<mxfile host="app.diagrams.net" agent="Mozilla/5.0 (Macintosh; Intel Mac OS X 10_15_7) AppleWebKit/537.36 (KHTML, like Gecko) Chrome/139.0.0.0 Safari/537.36" version="28.1.2">
  <diagram name="ページ1" id="R2JjqRzub-qG9FKg8T6q">
    <mxGraphModel dx="1357" dy="873" grid="1" gridSize="10" guides="1" tooltips="1" connect="1" arrows="1" fold="1" page="1" pageScale="1" pageWidth="827" pageHeight="1169" math="0" shadow="0">
      <root>
        <mxCell id="0" />
        <mxCell id="1" parent="0" />
        <mxCell id="P_p7sKXOOQL_kKfrtuSk-108" value="&lt;span style=&quot;font-size: 19px;&quot;&gt;Models&lt;/span&gt;" style="html=1;whiteSpace=wrap;align=left;verticalAlign=top;" vertex="1" parent="1">
          <mxGeometry x="20" y="330" width="930" height="170" as="geometry" />
        </mxCell>
        <mxCell id="P_p7sKXOOQL_kKfrtuSk-89" value="&lt;font style=&quot;font-size: 19px;&quot;&gt;Controller&lt;/font&gt;" style="html=1;whiteSpace=wrap;align=left;verticalAlign=top;" vertex="1" parent="1">
          <mxGeometry x="20" y="30" width="930" height="280" as="geometry" />
        </mxCell>
        <mxCell id="P_p7sKXOOQL_kKfrtuSk-25" value="" style="shape=table;startSize=0;container=1;collapsible=0;childLayout=tableLayout;" vertex="1" parent="1">
          <mxGeometry x="488" y="200" width="220" height="90.00000000000011" as="geometry" />
        </mxCell>
        <mxCell id="P_p7sKXOOQL_kKfrtuSk-26" value="" style="shape=tableRow;horizontal=0;startSize=0;swimlaneHead=0;swimlaneBody=0;strokeColor=inherit;top=0;left=0;bottom=0;right=0;collapsible=0;dropTarget=0;fillColor=none;points=[[0,0.5],[1,0.5]];portConstraint=eastwest;" vertex="1" parent="P_p7sKXOOQL_kKfrtuSk-25">
          <mxGeometry width="220" height="50" as="geometry" />
        </mxCell>
        <mxCell id="P_p7sKXOOQL_kKfrtuSk-27" value="&lt;span style=&quot;font-size: 15px; text-align: left;&quot;&gt;　AttendancesController&lt;/span&gt;" style="shape=partialRectangle;html=1;whiteSpace=wrap;connectable=0;strokeColor=inherit;overflow=hidden;fillColor=none;top=0;left=0;bottom=0;right=0;pointerEvents=1;" vertex="1" parent="P_p7sKXOOQL_kKfrtuSk-26">
          <mxGeometry width="220" height="50" as="geometry">
            <mxRectangle width="220" height="50" as="alternateBounds" />
          </mxGeometry>
        </mxCell>
        <mxCell id="P_p7sKXOOQL_kKfrtuSk-28" value="" style="shape=tableRow;horizontal=0;startSize=0;swimlaneHead=0;swimlaneBody=0;strokeColor=inherit;top=0;left=0;bottom=0;right=0;collapsible=0;dropTarget=0;fillColor=none;points=[[0,0.5],[1,0.5]];portConstraint=eastwest;fontSize=6;" vertex="1" parent="P_p7sKXOOQL_kKfrtuSk-25">
          <mxGeometry y="50" width="220" height="20" as="geometry" />
        </mxCell>
        <mxCell id="P_p7sKXOOQL_kKfrtuSk-29" value="" style="shape=partialRectangle;html=1;whiteSpace=wrap;connectable=0;strokeColor=inherit;overflow=hidden;fillColor=none;top=0;left=0;bottom=0;right=0;pointerEvents=1;" vertex="1" parent="P_p7sKXOOQL_kKfrtuSk-28">
          <mxGeometry width="220" height="20" as="geometry">
            <mxRectangle width="220" height="20" as="alternateBounds" />
          </mxGeometry>
        </mxCell>
        <mxCell id="P_p7sKXOOQL_kKfrtuSk-30" value="" style="shape=tableRow;horizontal=0;startSize=0;swimlaneHead=0;swimlaneBody=0;strokeColor=inherit;top=0;left=0;bottom=0;right=0;collapsible=0;dropTarget=0;fillColor=none;points=[[0,0.5],[1,0.5]];portConstraint=eastwest;" vertex="1" parent="P_p7sKXOOQL_kKfrtuSk-25">
          <mxGeometry y="70" width="220" height="20" as="geometry" />
        </mxCell>
        <mxCell id="P_p7sKXOOQL_kKfrtuSk-31" value="" style="shape=partialRectangle;html=1;whiteSpace=wrap;connectable=0;strokeColor=inherit;overflow=hidden;fillColor=none;top=0;left=0;bottom=0;right=0;pointerEvents=1;fontSize=6;spacing=2;" vertex="1" parent="P_p7sKXOOQL_kKfrtuSk-30">
          <mxGeometry width="220" height="20" as="geometry">
            <mxRectangle width="220" height="20" as="alternateBounds" />
          </mxGeometry>
        </mxCell>
        <mxCell id="P_p7sKXOOQL_kKfrtuSk-32" value="&lt;font style=&quot;font-size: 22px;&quot;&gt;C&lt;/font&gt;" style="ellipse;whiteSpace=wrap;html=1;aspect=fixed;" vertex="1" parent="1">
          <mxGeometry x="496" y="210" width="30" height="30" as="geometry" />
        </mxCell>
        <mxCell id="P_p7sKXOOQL_kKfrtuSk-33" value="" style="group" vertex="1" connectable="0" parent="1">
          <mxGeometry x="395" y="70" width="220" height="90.00000000000011" as="geometry" />
        </mxCell>
        <mxCell id="P_p7sKXOOQL_kKfrtuSk-16" value="" style="shape=table;startSize=0;container=1;collapsible=0;childLayout=tableLayout;" vertex="1" parent="P_p7sKXOOQL_kKfrtuSk-33">
          <mxGeometry width="220" height="90.00000000000011" as="geometry" />
        </mxCell>
        <mxCell id="P_p7sKXOOQL_kKfrtuSk-17" value="" style="shape=tableRow;horizontal=0;startSize=0;swimlaneHead=0;swimlaneBody=0;strokeColor=inherit;top=0;left=0;bottom=0;right=0;collapsible=0;dropTarget=0;fillColor=none;points=[[0,0.5],[1,0.5]];portConstraint=eastwest;" vertex="1" parent="P_p7sKXOOQL_kKfrtuSk-16">
          <mxGeometry width="220" height="50" as="geometry" />
        </mxCell>
        <mxCell id="P_p7sKXOOQL_kKfrtuSk-18" value="&lt;span style=&quot;font-size: 15px; text-align: left;&quot;&gt;　ApplicationController&lt;/span&gt;" style="shape=partialRectangle;html=1;whiteSpace=wrap;connectable=0;strokeColor=inherit;overflow=hidden;fillColor=none;top=0;left=0;bottom=0;right=0;pointerEvents=1;" vertex="1" parent="P_p7sKXOOQL_kKfrtuSk-17">
          <mxGeometry width="220" height="50" as="geometry">
            <mxRectangle width="220" height="50" as="alternateBounds" />
          </mxGeometry>
        </mxCell>
        <mxCell id="P_p7sKXOOQL_kKfrtuSk-19" value="" style="shape=tableRow;horizontal=0;startSize=0;swimlaneHead=0;swimlaneBody=0;strokeColor=inherit;top=0;left=0;bottom=0;right=0;collapsible=0;dropTarget=0;fillColor=none;points=[[0,0.5],[1,0.5]];portConstraint=eastwest;fontSize=6;" vertex="1" parent="P_p7sKXOOQL_kKfrtuSk-16">
          <mxGeometry y="50" width="220" height="20" as="geometry" />
        </mxCell>
        <mxCell id="P_p7sKXOOQL_kKfrtuSk-20" value="" style="shape=partialRectangle;html=1;whiteSpace=wrap;connectable=0;strokeColor=inherit;overflow=hidden;fillColor=none;top=0;left=0;bottom=0;right=0;pointerEvents=1;" vertex="1" parent="P_p7sKXOOQL_kKfrtuSk-19">
          <mxGeometry width="220" height="20" as="geometry">
            <mxRectangle width="220" height="20" as="alternateBounds" />
          </mxGeometry>
        </mxCell>
        <mxCell id="P_p7sKXOOQL_kKfrtuSk-21" value="" style="shape=tableRow;horizontal=0;startSize=0;swimlaneHead=0;swimlaneBody=0;strokeColor=inherit;top=0;left=0;bottom=0;right=0;collapsible=0;dropTarget=0;fillColor=none;points=[[0,0.5],[1,0.5]];portConstraint=eastwest;" vertex="1" parent="P_p7sKXOOQL_kKfrtuSk-16">
          <mxGeometry y="70" width="220" height="20" as="geometry" />
        </mxCell>
        <mxCell id="P_p7sKXOOQL_kKfrtuSk-22" value="" style="shape=partialRectangle;html=1;whiteSpace=wrap;connectable=0;strokeColor=inherit;overflow=hidden;fillColor=none;top=0;left=0;bottom=0;right=0;pointerEvents=1;fontSize=6;spacing=2;" vertex="1" parent="P_p7sKXOOQL_kKfrtuSk-21">
          <mxGeometry width="220" height="20" as="geometry">
            <mxRectangle width="220" height="20" as="alternateBounds" />
          </mxGeometry>
        </mxCell>
        <mxCell id="P_p7sKXOOQL_kKfrtuSk-2" value="&lt;font style=&quot;font-size: 22px;&quot;&gt;C&lt;/font&gt;" style="ellipse;whiteSpace=wrap;html=1;aspect=fixed;" vertex="1" parent="P_p7sKXOOQL_kKfrtuSk-33">
          <mxGeometry x="8" y="10" width="30" height="30" as="geometry" />
        </mxCell>
        <mxCell id="P_p7sKXOOQL_kKfrtuSk-34" value="" style="shape=table;startSize=0;container=1;collapsible=0;childLayout=tableLayout;" vertex="1" parent="1">
          <mxGeometry x="270" y="200" width="190" height="90" as="geometry" />
        </mxCell>
        <mxCell id="P_p7sKXOOQL_kKfrtuSk-35" value="" style="shape=tableRow;horizontal=0;startSize=0;swimlaneHead=0;swimlaneBody=0;strokeColor=inherit;top=0;left=0;bottom=0;right=0;collapsible=0;dropTarget=0;fillColor=none;points=[[0,0.5],[1,0.5]];portConstraint=eastwest;" vertex="1" parent="P_p7sKXOOQL_kKfrtuSk-34">
          <mxGeometry width="190" height="50" as="geometry" />
        </mxCell>
        <mxCell id="P_p7sKXOOQL_kKfrtuSk-36" value="&lt;span style=&quot;font-size: 15px; text-align: left;&quot;&gt;　SessionsController&lt;/span&gt;" style="shape=partialRectangle;html=1;whiteSpace=wrap;connectable=0;strokeColor=inherit;overflow=hidden;fillColor=none;top=0;left=0;bottom=0;right=0;pointerEvents=1;" vertex="1" parent="P_p7sKXOOQL_kKfrtuSk-35">
          <mxGeometry width="190" height="50" as="geometry">
            <mxRectangle width="190" height="50" as="alternateBounds" />
          </mxGeometry>
        </mxCell>
        <mxCell id="P_p7sKXOOQL_kKfrtuSk-37" value="" style="shape=tableRow;horizontal=0;startSize=0;swimlaneHead=0;swimlaneBody=0;strokeColor=inherit;top=0;left=0;bottom=0;right=0;collapsible=0;dropTarget=0;fillColor=none;points=[[0,0.5],[1,0.5]];portConstraint=eastwest;fontSize=6;" vertex="1" parent="P_p7sKXOOQL_kKfrtuSk-34">
          <mxGeometry y="50" width="190" height="20" as="geometry" />
        </mxCell>
        <mxCell id="P_p7sKXOOQL_kKfrtuSk-38" value="" style="shape=partialRectangle;html=1;whiteSpace=wrap;connectable=0;strokeColor=inherit;overflow=hidden;fillColor=none;top=0;left=0;bottom=0;right=0;pointerEvents=1;" vertex="1" parent="P_p7sKXOOQL_kKfrtuSk-37">
          <mxGeometry width="190" height="20" as="geometry">
            <mxRectangle width="190" height="20" as="alternateBounds" />
          </mxGeometry>
        </mxCell>
        <mxCell id="P_p7sKXOOQL_kKfrtuSk-39" value="" style="shape=tableRow;horizontal=0;startSize=0;swimlaneHead=0;swimlaneBody=0;strokeColor=inherit;top=0;left=0;bottom=0;right=0;collapsible=0;dropTarget=0;fillColor=none;points=[[0,0.5],[1,0.5]];portConstraint=eastwest;" vertex="1" parent="P_p7sKXOOQL_kKfrtuSk-34">
          <mxGeometry y="70" width="190" height="20" as="geometry" />
        </mxCell>
        <mxCell id="P_p7sKXOOQL_kKfrtuSk-40" value="" style="shape=partialRectangle;html=1;whiteSpace=wrap;connectable=0;strokeColor=inherit;overflow=hidden;fillColor=none;top=0;left=0;bottom=0;right=0;pointerEvents=1;fontSize=6;spacing=2;" vertex="1" parent="P_p7sKXOOQL_kKfrtuSk-39">
          <mxGeometry width="190" height="20" as="geometry">
            <mxRectangle width="190" height="20" as="alternateBounds" />
          </mxGeometry>
        </mxCell>
        <mxCell id="P_p7sKXOOQL_kKfrtuSk-41" value="&lt;font style=&quot;font-size: 22px;&quot;&gt;C&lt;/font&gt;" style="ellipse;whiteSpace=wrap;html=1;aspect=fixed;" vertex="1" parent="1">
          <mxGeometry x="275" y="210" width="30" height="30" as="geometry" />
        </mxCell>
        <mxCell id="P_p7sKXOOQL_kKfrtuSk-42" value="" style="shape=table;startSize=0;container=1;collapsible=0;childLayout=tableLayout;" vertex="1" parent="1">
          <mxGeometry x="57" y="200" width="180" height="90.00000000000011" as="geometry" />
        </mxCell>
        <mxCell id="P_p7sKXOOQL_kKfrtuSk-43" value="" style="shape=tableRow;horizontal=0;startSize=0;swimlaneHead=0;swimlaneBody=0;strokeColor=inherit;top=0;left=0;bottom=0;right=0;collapsible=0;dropTarget=0;fillColor=none;points=[[0,0.5],[1,0.5]];portConstraint=eastwest;" vertex="1" parent="P_p7sKXOOQL_kKfrtuSk-42">
          <mxGeometry width="180" height="50" as="geometry" />
        </mxCell>
        <mxCell id="P_p7sKXOOQL_kKfrtuSk-44" value="&lt;span style=&quot;font-size: 15px; text-align: left;&quot;&gt;　UsersController&lt;/span&gt;" style="shape=partialRectangle;html=1;whiteSpace=wrap;connectable=0;strokeColor=inherit;overflow=hidden;fillColor=none;top=0;left=0;bottom=0;right=0;pointerEvents=1;" vertex="1" parent="P_p7sKXOOQL_kKfrtuSk-43">
          <mxGeometry width="180" height="50" as="geometry">
            <mxRectangle width="180" height="50" as="alternateBounds" />
          </mxGeometry>
        </mxCell>
        <mxCell id="P_p7sKXOOQL_kKfrtuSk-45" value="" style="shape=tableRow;horizontal=0;startSize=0;swimlaneHead=0;swimlaneBody=0;strokeColor=inherit;top=0;left=0;bottom=0;right=0;collapsible=0;dropTarget=0;fillColor=none;points=[[0,0.5],[1,0.5]];portConstraint=eastwest;fontSize=6;" vertex="1" parent="P_p7sKXOOQL_kKfrtuSk-42">
          <mxGeometry y="50" width="180" height="20" as="geometry" />
        </mxCell>
        <mxCell id="P_p7sKXOOQL_kKfrtuSk-46" value="" style="shape=partialRectangle;html=1;whiteSpace=wrap;connectable=0;strokeColor=inherit;overflow=hidden;fillColor=none;top=0;left=0;bottom=0;right=0;pointerEvents=1;" vertex="1" parent="P_p7sKXOOQL_kKfrtuSk-45">
          <mxGeometry width="180" height="20" as="geometry">
            <mxRectangle width="180" height="20" as="alternateBounds" />
          </mxGeometry>
        </mxCell>
        <mxCell id="P_p7sKXOOQL_kKfrtuSk-47" value="" style="shape=tableRow;horizontal=0;startSize=0;swimlaneHead=0;swimlaneBody=0;strokeColor=inherit;top=0;left=0;bottom=0;right=0;collapsible=0;dropTarget=0;fillColor=none;points=[[0,0.5],[1,0.5]];portConstraint=eastwest;" vertex="1" parent="P_p7sKXOOQL_kKfrtuSk-42">
          <mxGeometry y="70" width="180" height="20" as="geometry" />
        </mxCell>
        <mxCell id="P_p7sKXOOQL_kKfrtuSk-48" value="" style="shape=partialRectangle;html=1;whiteSpace=wrap;connectable=0;strokeColor=inherit;overflow=hidden;fillColor=none;top=0;left=0;bottom=0;right=0;pointerEvents=1;fontSize=6;spacing=2;" vertex="1" parent="P_p7sKXOOQL_kKfrtuSk-47">
          <mxGeometry width="180" height="20" as="geometry">
            <mxRectangle width="180" height="20" as="alternateBounds" />
          </mxGeometry>
        </mxCell>
        <mxCell id="P_p7sKXOOQL_kKfrtuSk-49" value="&lt;font style=&quot;font-size: 22px;&quot;&gt;C&lt;/font&gt;" style="ellipse;whiteSpace=wrap;html=1;aspect=fixed;" vertex="1" parent="1">
          <mxGeometry x="65" y="210" width="30" height="30" as="geometry" />
        </mxCell>
        <mxCell id="P_p7sKXOOQL_kKfrtuSk-50" value="" style="shape=table;startSize=0;container=1;collapsible=0;childLayout=tableLayout;" vertex="1" parent="1">
          <mxGeometry x="734" y="200" width="170" height="90.00000000000011" as="geometry" />
        </mxCell>
        <mxCell id="P_p7sKXOOQL_kKfrtuSk-51" value="" style="shape=tableRow;horizontal=0;startSize=0;swimlaneHead=0;swimlaneBody=0;strokeColor=inherit;top=0;left=0;bottom=0;right=0;collapsible=0;dropTarget=0;fillColor=none;points=[[0,0.5],[1,0.5]];portConstraint=eastwest;" vertex="1" parent="P_p7sKXOOQL_kKfrtuSk-50">
          <mxGeometry width="170" height="50" as="geometry" />
        </mxCell>
        <mxCell id="P_p7sKXOOQL_kKfrtuSk-52" value="&lt;span style=&quot;font-size: 15px; text-align: left;&quot;&gt;　RestsController&lt;/span&gt;" style="shape=partialRectangle;html=1;whiteSpace=wrap;connectable=0;strokeColor=inherit;overflow=hidden;fillColor=none;top=0;left=0;bottom=0;right=0;pointerEvents=1;" vertex="1" parent="P_p7sKXOOQL_kKfrtuSk-51">
          <mxGeometry width="170" height="50" as="geometry">
            <mxRectangle width="170" height="50" as="alternateBounds" />
          </mxGeometry>
        </mxCell>
        <mxCell id="P_p7sKXOOQL_kKfrtuSk-53" value="" style="shape=tableRow;horizontal=0;startSize=0;swimlaneHead=0;swimlaneBody=0;strokeColor=inherit;top=0;left=0;bottom=0;right=0;collapsible=0;dropTarget=0;fillColor=none;points=[[0,0.5],[1,0.5]];portConstraint=eastwest;fontSize=6;" vertex="1" parent="P_p7sKXOOQL_kKfrtuSk-50">
          <mxGeometry y="50" width="170" height="20" as="geometry" />
        </mxCell>
        <mxCell id="P_p7sKXOOQL_kKfrtuSk-54" value="" style="shape=partialRectangle;html=1;whiteSpace=wrap;connectable=0;strokeColor=inherit;overflow=hidden;fillColor=none;top=0;left=0;bottom=0;right=0;pointerEvents=1;" vertex="1" parent="P_p7sKXOOQL_kKfrtuSk-53">
          <mxGeometry width="170" height="20" as="geometry">
            <mxRectangle width="170" height="20" as="alternateBounds" />
          </mxGeometry>
        </mxCell>
        <mxCell id="P_p7sKXOOQL_kKfrtuSk-55" value="" style="shape=tableRow;horizontal=0;startSize=0;swimlaneHead=0;swimlaneBody=0;strokeColor=inherit;top=0;left=0;bottom=0;right=0;collapsible=0;dropTarget=0;fillColor=none;points=[[0,0.5],[1,0.5]];portConstraint=eastwest;" vertex="1" parent="P_p7sKXOOQL_kKfrtuSk-50">
          <mxGeometry y="70" width="170" height="20" as="geometry" />
        </mxCell>
        <mxCell id="P_p7sKXOOQL_kKfrtuSk-56" value="" style="shape=partialRectangle;html=1;whiteSpace=wrap;connectable=0;strokeColor=inherit;overflow=hidden;fillColor=none;top=0;left=0;bottom=0;right=0;pointerEvents=1;fontSize=6;spacing=2;" vertex="1" parent="P_p7sKXOOQL_kKfrtuSk-55">
          <mxGeometry width="170" height="20" as="geometry">
            <mxRectangle width="170" height="20" as="alternateBounds" />
          </mxGeometry>
        </mxCell>
        <mxCell id="P_p7sKXOOQL_kKfrtuSk-57" value="&lt;font style=&quot;font-size: 22px;&quot;&gt;C&lt;/font&gt;" style="ellipse;whiteSpace=wrap;html=1;aspect=fixed;" vertex="1" parent="1">
          <mxGeometry x="739" y="210" width="30" height="30" as="geometry" />
        </mxCell>
        <mxCell id="P_p7sKXOOQL_kKfrtuSk-61" value="" style="endArrow=classic;html=1;rounded=0;entryX=0.479;entryY=1.046;entryDx=0;entryDy=0;entryPerimeter=0;" edge="1" parent="1" target="P_p7sKXOOQL_kKfrtuSk-21">
          <mxGeometry width="50" height="50" relative="1" as="geometry">
            <mxPoint x="360" y="200" as="sourcePoint" />
            <mxPoint x="410" y="150" as="targetPoint" />
          </mxGeometry>
        </mxCell>
        <mxCell id="P_p7sKXOOQL_kKfrtuSk-62" value="" style="endArrow=classic;html=1;rounded=0;entryX=0.479;entryY=1.046;entryDx=0;entryDy=0;entryPerimeter=0;exitX=0.554;exitY=-0.011;exitDx=0;exitDy=0;exitPerimeter=0;" edge="1" parent="1" source="P_p7sKXOOQL_kKfrtuSk-43">
          <mxGeometry width="50" height="50" relative="1" as="geometry">
            <mxPoint x="305" y="200" as="sourcePoint" />
            <mxPoint x="445" y="161" as="targetPoint" />
          </mxGeometry>
        </mxCell>
        <mxCell id="P_p7sKXOOQL_kKfrtuSk-63" value="" style="endArrow=classic;html=1;rounded=0;entryX=0.479;entryY=1.046;entryDx=0;entryDy=0;entryPerimeter=0;exitX=0.494;exitY=0.004;exitDx=0;exitDy=0;exitPerimeter=0;" edge="1" parent="1">
          <mxGeometry width="50" height="50" relative="1" as="geometry">
            <mxPoint x="582.6799999999998" y="199.19999999999982" as="sourcePoint" />
            <mxPoint x="526" y="160" as="targetPoint" />
          </mxGeometry>
        </mxCell>
        <mxCell id="P_p7sKXOOQL_kKfrtuSk-64" value="" style="endArrow=classic;html=1;rounded=0;entryX=0.479;entryY=1.046;entryDx=0;entryDy=0;entryPerimeter=0;exitX=0.447;exitY=0;exitDx=0;exitDy=0;exitPerimeter=0;" edge="1" parent="1" source="P_p7sKXOOQL_kKfrtuSk-51">
          <mxGeometry width="50" height="50" relative="1" as="geometry">
            <mxPoint x="626.3399999999998" y="199.19999999999982" as="sourcePoint" />
            <mxPoint x="569.6600000000001" y="160" as="targetPoint" />
          </mxGeometry>
        </mxCell>
        <mxCell id="P_p7sKXOOQL_kKfrtuSk-65" value="" style="shape=table;startSize=0;container=1;collapsible=0;childLayout=tableLayout;" vertex="1" parent="1">
          <mxGeometry x="130" y="380" width="104.99999999999955" height="90" as="geometry" />
        </mxCell>
        <mxCell id="P_p7sKXOOQL_kKfrtuSk-66" value="" style="shape=tableRow;horizontal=0;startSize=0;swimlaneHead=0;swimlaneBody=0;strokeColor=inherit;top=0;left=0;bottom=0;right=0;collapsible=0;dropTarget=0;fillColor=none;points=[[0,0.5],[1,0.5]];portConstraint=eastwest;" vertex="1" parent="P_p7sKXOOQL_kKfrtuSk-65">
          <mxGeometry width="104.99999999999955" height="50" as="geometry" />
        </mxCell>
        <mxCell id="P_p7sKXOOQL_kKfrtuSk-67" value="&lt;span style=&quot;font-size: 15px; text-align: left;&quot;&gt;　User&lt;/span&gt;" style="shape=partialRectangle;html=1;whiteSpace=wrap;connectable=0;strokeColor=inherit;overflow=hidden;fillColor=none;top=0;left=0;bottom=0;right=0;pointerEvents=1;" vertex="1" parent="P_p7sKXOOQL_kKfrtuSk-66">
          <mxGeometry width="105" height="50" as="geometry">
            <mxRectangle width="105" height="50" as="alternateBounds" />
          </mxGeometry>
        </mxCell>
        <mxCell id="P_p7sKXOOQL_kKfrtuSk-68" value="" style="shape=tableRow;horizontal=0;startSize=0;swimlaneHead=0;swimlaneBody=0;strokeColor=inherit;top=0;left=0;bottom=0;right=0;collapsible=0;dropTarget=0;fillColor=none;points=[[0,0.5],[1,0.5]];portConstraint=eastwest;fontSize=6;" vertex="1" parent="P_p7sKXOOQL_kKfrtuSk-65">
          <mxGeometry y="50" width="104.99999999999955" height="20" as="geometry" />
        </mxCell>
        <mxCell id="P_p7sKXOOQL_kKfrtuSk-69" value="" style="shape=partialRectangle;html=1;whiteSpace=wrap;connectable=0;strokeColor=inherit;overflow=hidden;fillColor=none;top=0;left=0;bottom=0;right=0;pointerEvents=1;" vertex="1" parent="P_p7sKXOOQL_kKfrtuSk-68">
          <mxGeometry width="105" height="20" as="geometry">
            <mxRectangle width="105" height="20" as="alternateBounds" />
          </mxGeometry>
        </mxCell>
        <mxCell id="P_p7sKXOOQL_kKfrtuSk-70" value="" style="shape=tableRow;horizontal=0;startSize=0;swimlaneHead=0;swimlaneBody=0;strokeColor=inherit;top=0;left=0;bottom=0;right=0;collapsible=0;dropTarget=0;fillColor=none;points=[[0,0.5],[1,0.5]];portConstraint=eastwest;" vertex="1" parent="P_p7sKXOOQL_kKfrtuSk-65">
          <mxGeometry y="70" width="104.99999999999955" height="20" as="geometry" />
        </mxCell>
        <mxCell id="P_p7sKXOOQL_kKfrtuSk-71" value="" style="shape=partialRectangle;html=1;whiteSpace=wrap;connectable=0;strokeColor=inherit;overflow=hidden;fillColor=none;top=0;left=0;bottom=0;right=0;pointerEvents=1;fontSize=6;spacing=2;" vertex="1" parent="P_p7sKXOOQL_kKfrtuSk-70">
          <mxGeometry width="105" height="20" as="geometry">
            <mxRectangle width="105" height="20" as="alternateBounds" />
          </mxGeometry>
        </mxCell>
        <mxCell id="P_p7sKXOOQL_kKfrtuSk-72" value="&lt;font style=&quot;font-size: 22px;&quot;&gt;C&lt;/font&gt;" style="ellipse;whiteSpace=wrap;html=1;aspect=fixed;" vertex="1" parent="1">
          <mxGeometry x="137" y="390" width="30" height="30" as="geometry" />
        </mxCell>
        <mxCell id="P_p7sKXOOQL_kKfrtuSk-73" value="" style="shape=table;startSize=0;container=1;collapsible=0;childLayout=tableLayout;" vertex="1" parent="1">
          <mxGeometry x="414" y="380" width="145.99999999999955" height="90" as="geometry" />
        </mxCell>
        <mxCell id="P_p7sKXOOQL_kKfrtuSk-74" value="" style="shape=tableRow;horizontal=0;startSize=0;swimlaneHead=0;swimlaneBody=0;strokeColor=inherit;top=0;left=0;bottom=0;right=0;collapsible=0;dropTarget=0;fillColor=none;points=[[0,0.5],[1,0.5]];portConstraint=eastwest;" vertex="1" parent="P_p7sKXOOQL_kKfrtuSk-73">
          <mxGeometry width="145.99999999999955" height="50" as="geometry" />
        </mxCell>
        <mxCell id="P_p7sKXOOQL_kKfrtuSk-75" value="&lt;span style=&quot;font-size: 15px; text-align: left;&quot;&gt;　Attendance&lt;/span&gt;" style="shape=partialRectangle;html=1;whiteSpace=wrap;connectable=0;strokeColor=inherit;overflow=hidden;fillColor=none;top=0;left=0;bottom=0;right=0;pointerEvents=1;" vertex="1" parent="P_p7sKXOOQL_kKfrtuSk-74">
          <mxGeometry width="146" height="50" as="geometry">
            <mxRectangle width="146" height="50" as="alternateBounds" />
          </mxGeometry>
        </mxCell>
        <mxCell id="P_p7sKXOOQL_kKfrtuSk-76" value="" style="shape=tableRow;horizontal=0;startSize=0;swimlaneHead=0;swimlaneBody=0;strokeColor=inherit;top=0;left=0;bottom=0;right=0;collapsible=0;dropTarget=0;fillColor=none;points=[[0,0.5],[1,0.5]];portConstraint=eastwest;fontSize=6;" vertex="1" parent="P_p7sKXOOQL_kKfrtuSk-73">
          <mxGeometry y="50" width="145.99999999999955" height="20" as="geometry" />
        </mxCell>
        <mxCell id="P_p7sKXOOQL_kKfrtuSk-77" value="" style="shape=partialRectangle;html=1;whiteSpace=wrap;connectable=0;strokeColor=inherit;overflow=hidden;fillColor=none;top=0;left=0;bottom=0;right=0;pointerEvents=1;" vertex="1" parent="P_p7sKXOOQL_kKfrtuSk-76">
          <mxGeometry width="146" height="20" as="geometry">
            <mxRectangle width="146" height="20" as="alternateBounds" />
          </mxGeometry>
        </mxCell>
        <mxCell id="P_p7sKXOOQL_kKfrtuSk-78" value="" style="shape=tableRow;horizontal=0;startSize=0;swimlaneHead=0;swimlaneBody=0;strokeColor=inherit;top=0;left=0;bottom=0;right=0;collapsible=0;dropTarget=0;fillColor=none;points=[[0,0.5],[1,0.5]];portConstraint=eastwest;" vertex="1" parent="P_p7sKXOOQL_kKfrtuSk-73">
          <mxGeometry y="70" width="145.99999999999955" height="20" as="geometry" />
        </mxCell>
        <mxCell id="P_p7sKXOOQL_kKfrtuSk-79" value="" style="shape=partialRectangle;html=1;whiteSpace=wrap;connectable=0;strokeColor=inherit;overflow=hidden;fillColor=none;top=0;left=0;bottom=0;right=0;pointerEvents=1;fontSize=6;spacing=2;" vertex="1" parent="P_p7sKXOOQL_kKfrtuSk-78">
          <mxGeometry width="146" height="20" as="geometry">
            <mxRectangle width="146" height="20" as="alternateBounds" />
          </mxGeometry>
        </mxCell>
        <mxCell id="P_p7sKXOOQL_kKfrtuSk-80" value="&lt;font style=&quot;font-size: 22px;&quot;&gt;C&lt;/font&gt;" style="ellipse;whiteSpace=wrap;html=1;aspect=fixed;" vertex="1" parent="1">
          <mxGeometry x="419" y="390" width="30" height="30" as="geometry" />
        </mxCell>
        <mxCell id="P_p7sKXOOQL_kKfrtuSk-81" value="" style="endArrow=classic;html=1;rounded=0;dashed=1;exitX=0.447;exitY=1.102;exitDx=0;exitDy=0;exitPerimeter=0;entryX=0.286;entryY=0;entryDx=0;entryDy=0;entryPerimeter=0;" edge="1" parent="1" source="P_p7sKXOOQL_kKfrtuSk-47" target="P_p7sKXOOQL_kKfrtuSk-66">
          <mxGeometry width="50" height="50" relative="1" as="geometry">
            <mxPoint x="140" y="400" as="sourcePoint" />
            <mxPoint x="190" y="350" as="targetPoint" />
          </mxGeometry>
        </mxCell>
        <mxCell id="P_p7sKXOOQL_kKfrtuSk-82" value="" style="endArrow=classic;html=1;rounded=0;dashed=1;exitX=0.447;exitY=1.102;exitDx=0;exitDy=0;exitPerimeter=0;entryX=0.696;entryY=-0.033;entryDx=0;entryDy=0;entryPerimeter=0;" edge="1" parent="1" target="P_p7sKXOOQL_kKfrtuSk-66">
          <mxGeometry width="50" height="50" relative="1" as="geometry">
            <mxPoint x="360" y="290" as="sourcePoint" />
            <mxPoint x="453" y="348" as="targetPoint" />
          </mxGeometry>
        </mxCell>
        <mxCell id="P_p7sKXOOQL_kKfrtuSk-83" value="" style="endArrow=classic;html=1;rounded=0;dashed=1;exitX=0.447;exitY=1.102;exitDx=0;exitDy=0;exitPerimeter=0;entryX=0.553;entryY=-0.033;entryDx=0;entryDy=0;entryPerimeter=0;" edge="1" parent="1" target="P_p7sKXOOQL_kKfrtuSk-74">
          <mxGeometry width="50" height="50" relative="1" as="geometry">
            <mxPoint x="580" y="290" as="sourcePoint" />
            <mxPoint x="673" y="348" as="targetPoint" />
          </mxGeometry>
        </mxCell>
        <mxCell id="P_p7sKXOOQL_kKfrtuSk-84" value="" style="endArrow=classic;html=1;rounded=0;dashed=1;exitX=0.447;exitY=1.102;exitDx=0;exitDy=0;exitPerimeter=0;entryX=0.489;entryY=-0.033;entryDx=0;entryDy=0;entryPerimeter=0;" edge="1" parent="1" target="P_p7sKXOOQL_kKfrtuSk-98">
          <mxGeometry width="50" height="50" relative="1" as="geometry">
            <mxPoint x="810" y="292" as="sourcePoint" />
            <mxPoint x="921" y="350" as="targetPoint" />
          </mxGeometry>
        </mxCell>
        <mxCell id="P_p7sKXOOQL_kKfrtuSk-85" value="" style="endArrow=none;html=1;rounded=0;exitX=1;exitY=0.5;exitDx=0;exitDy=0;entryX=0.001;entryY=0.796;entryDx=0;entryDy=0;entryPerimeter=0;" edge="1" parent="1" target="P_p7sKXOOQL_kKfrtuSk-74">
          <mxGeometry width="50" height="50" relative="1" as="geometry">
            <mxPoint x="234.99999999999977" y="420" as="sourcePoint" />
            <mxPoint x="592" y="420" as="targetPoint" />
          </mxGeometry>
        </mxCell>
        <mxCell id="P_p7sKXOOQL_kKfrtuSk-86" value="1" style="text;html=1;align=center;verticalAlign=middle;whiteSpace=wrap;rounded=0;" vertex="1" parent="1">
          <mxGeometry x="220" y="390" width="60" height="30" as="geometry" />
        </mxCell>
        <mxCell id="P_p7sKXOOQL_kKfrtuSk-87" value="0..n" style="text;html=1;align=center;verticalAlign=middle;whiteSpace=wrap;rounded=0;" vertex="1" parent="1">
          <mxGeometry x="350" y="390" width="60" height="30" as="geometry" />
        </mxCell>
        <mxCell id="P_p7sKXOOQL_kKfrtuSk-97" value="" style="shape=table;startSize=0;container=1;collapsible=0;childLayout=tableLayout;" vertex="1" parent="1">
          <mxGeometry x="734.0000000000002" y="380" width="105.99999999999955" height="90" as="geometry" />
        </mxCell>
        <mxCell id="P_p7sKXOOQL_kKfrtuSk-98" value="" style="shape=tableRow;horizontal=0;startSize=0;swimlaneHead=0;swimlaneBody=0;strokeColor=inherit;top=0;left=0;bottom=0;right=0;collapsible=0;dropTarget=0;fillColor=none;points=[[0,0.5],[1,0.5]];portConstraint=eastwest;" vertex="1" parent="P_p7sKXOOQL_kKfrtuSk-97">
          <mxGeometry width="105.99999999999955" height="50" as="geometry" />
        </mxCell>
        <mxCell id="P_p7sKXOOQL_kKfrtuSk-99" value="&lt;div style=&quot;text-align: left;&quot;&gt;&lt;span style=&quot;background-color: transparent; color: light-dark(rgb(0, 0, 0), rgb(255, 255, 255)); font-size: 15px;&quot;&gt;Rest&lt;/span&gt;&lt;/div&gt;" style="shape=partialRectangle;html=1;whiteSpace=wrap;connectable=0;strokeColor=inherit;overflow=hidden;fillColor=none;top=0;left=0;bottom=0;right=0;pointerEvents=1;" vertex="1" parent="P_p7sKXOOQL_kKfrtuSk-98">
          <mxGeometry width="106" height="50" as="geometry">
            <mxRectangle width="106" height="50" as="alternateBounds" />
          </mxGeometry>
        </mxCell>
        <mxCell id="P_p7sKXOOQL_kKfrtuSk-100" value="" style="shape=tableRow;horizontal=0;startSize=0;swimlaneHead=0;swimlaneBody=0;strokeColor=inherit;top=0;left=0;bottom=0;right=0;collapsible=0;dropTarget=0;fillColor=none;points=[[0,0.5],[1,0.5]];portConstraint=eastwest;fontSize=6;" vertex="1" parent="P_p7sKXOOQL_kKfrtuSk-97">
          <mxGeometry y="50" width="105.99999999999955" height="20" as="geometry" />
        </mxCell>
        <mxCell id="P_p7sKXOOQL_kKfrtuSk-101" value="" style="shape=partialRectangle;html=1;whiteSpace=wrap;connectable=0;strokeColor=inherit;overflow=hidden;fillColor=none;top=0;left=0;bottom=0;right=0;pointerEvents=1;" vertex="1" parent="P_p7sKXOOQL_kKfrtuSk-100">
          <mxGeometry width="106" height="20" as="geometry">
            <mxRectangle width="106" height="20" as="alternateBounds" />
          </mxGeometry>
        </mxCell>
        <mxCell id="P_p7sKXOOQL_kKfrtuSk-102" value="" style="shape=tableRow;horizontal=0;startSize=0;swimlaneHead=0;swimlaneBody=0;strokeColor=inherit;top=0;left=0;bottom=0;right=0;collapsible=0;dropTarget=0;fillColor=none;points=[[0,0.5],[1,0.5]];portConstraint=eastwest;" vertex="1" parent="P_p7sKXOOQL_kKfrtuSk-97">
          <mxGeometry y="70" width="105.99999999999955" height="20" as="geometry" />
        </mxCell>
        <mxCell id="P_p7sKXOOQL_kKfrtuSk-103" value="" style="shape=partialRectangle;html=1;whiteSpace=wrap;connectable=0;strokeColor=inherit;overflow=hidden;fillColor=none;top=0;left=0;bottom=0;right=0;pointerEvents=1;fontSize=6;spacing=2;" vertex="1" parent="P_p7sKXOOQL_kKfrtuSk-102">
          <mxGeometry width="106" height="20" as="geometry">
            <mxRectangle width="106" height="20" as="alternateBounds" />
          </mxGeometry>
        </mxCell>
        <mxCell id="P_p7sKXOOQL_kKfrtuSk-104" value="&lt;font style=&quot;font-size: 22px;&quot;&gt;C&lt;/font&gt;" style="ellipse;whiteSpace=wrap;html=1;aspect=fixed;" vertex="1" parent="1">
          <mxGeometry x="739.0000000000002" y="390" width="30" height="30" as="geometry" />
        </mxCell>
        <mxCell id="P_p7sKXOOQL_kKfrtuSk-105" value="" style="endArrow=none;html=1;rounded=0;exitX=1;exitY=0.5;exitDx=0;exitDy=0;entryX=0.001;entryY=0.796;entryDx=0;entryDy=0;entryPerimeter=0;" edge="1" parent="1" target="P_p7sKXOOQL_kKfrtuSk-98">
          <mxGeometry width="50" height="50" relative="1" as="geometry">
            <mxPoint x="555" y="420" as="sourcePoint" />
            <mxPoint x="912.0000000000002" y="420" as="targetPoint" />
          </mxGeometry>
        </mxCell>
        <mxCell id="P_p7sKXOOQL_kKfrtuSk-106" value="0..n" style="text;html=1;align=center;verticalAlign=middle;whiteSpace=wrap;rounded=0;" vertex="1" parent="1">
          <mxGeometry x="670.0000000000002" y="390" width="60" height="30" as="geometry" />
        </mxCell>
        <mxCell id="P_p7sKXOOQL_kKfrtuSk-107" value="1" style="text;html=1;align=center;verticalAlign=middle;whiteSpace=wrap;rounded=0;" vertex="1" parent="1">
          <mxGeometry x="555" y="390" width="60" height="30" as="geometry" />
        </mxCell>
      </root>
    </mxGraphModel>
  </diagram>
</mxfile>
